<svg width="34" height="34" viewBox="0 0 34 34" fill="none" xmlns="http://www.w3.org/2000/svg">
<path d="M28.6664 9.39999L4.99972 33.1333C4.46639 33.6667 3.83263 33.9333 3.09839 33.9333C2.36596 33.9333 1.73305 33.6667 1.19972 33.1333C0.666386 32.6 0.399719 31.9661 0.399719 31.232C0.399719 30.4995 0.666386 29.8667 1.19972 29.3333L24.9331 5.66666H4.66639C3.91084 5.66666 3.27705 5.41154 2.76505 4.90133C2.25484 4.38933 1.99972 3.75554 1.99972 2.99999C1.99972 2.24445 2.25484 1.61066 2.76505 1.09866C3.27705 0.588449 3.91084 0.333328 4.66639 0.333328H31.3331C32.0885 0.333328 32.7216 0.588449 33.2317 1.09866C33.7437 1.61066 33.9997 2.24445 33.9997 2.99999V29.6667C33.9997 30.4221 33.7437 31.0552 33.2317 31.5653C32.7216 32.0773 32.0885 32.3333 31.3331 32.3333C30.5776 32.3333 29.9445 32.0773 29.4344 31.5653C28.9224 31.0552 28.6664 30.4221 28.6664 29.6667V9.39999Z" fill="#FAF4E5"/>
</svg>
